<svg width="23" height="22" viewBox="0 0 23 22" fill="none" xmlns="http://www.w3.org/2000/svg">
<path d="M21.438 1.7507H18.5341V0H16.9778V1.7507H6.09911V0H4.54285V1.7507H1.63928C1.01971 1.7507 0.515625 2.25492 0.515625 2.87435V20.3389C0.515625 20.9587 1.01967 21.4626 1.63928 21.4626H21.4379C22.0575 21.4626 22.5616 20.9585 22.5616 20.3389V2.87435C22.5616 2.25496 22.0575 1.7507 21.4379 1.7507H21.438ZM21.0054 19.9064H2.07195V8.16813H21.0058L21.0054 19.9064ZM21.0054 6.61222H2.07195V3.30696H4.54304V4.36583H6.09931V3.30696H16.9785V4.36583H18.5347V3.30696H21.0062L21.006 6.61222H21.0054Z" fill="#808E2C"/>
<path d="M5.3596 12.4394C6.00257 12.4394 6.52682 11.9155 6.52682 11.2722C6.52682 10.6263 6.00292 10.105 5.3596 10.105C4.7137 10.105 4.19238 10.6263 4.19238 11.2722C4.19272 11.9157 4.71388 12.4394 5.3596 12.4394Z" fill="#808E2C"/>
<path d="M17.5056 12.4394C18.1489 12.4394 18.6728 11.9155 18.6728 11.2722C18.6728 10.6263 18.1491 10.105 17.5056 10.105C16.8599 10.105 16.3384 10.6263 16.3384 11.2722C16.3384 11.9157 16.8599 12.4394 17.5056 12.4394Z" fill="#808E2C"/>
<path d="M11.4314 12.4394C12.0773 12.4394 12.5986 11.9155 12.5986 11.2722C12.5986 10.6263 12.0773 10.105 11.4314 10.105C10.7884 10.105 10.2642 10.6263 10.2642 11.2722C10.2642 11.9157 10.7881 12.4394 11.4314 12.4394Z" fill="#808E2C"/>
<path d="M5.37279 15.2593C4.72689 15.2593 4.20557 15.7832 4.20557 16.4265C4.20557 17.0722 4.72689 17.5937 5.37279 17.5937C6.01575 17.5937 6.54001 17.0724 6.54001 16.4265C6.54018 15.7832 6.01597 15.2593 5.37279 15.2593Z" fill="#808E2C"/>
<path d="M11.4446 15.2593C10.8012 15.2593 10.2773 15.7832 10.2773 16.4265C10.2773 17.0722 10.8011 17.5937 11.4446 17.5937C12.0903 17.5937 12.6118 17.0724 12.6118 16.4265C12.6118 15.7832 12.0903 15.2593 11.4446 15.2593Z" fill="#808E2C"/>
<path d="M17.5188 15.2593C16.8729 15.2593 16.3516 15.7832 16.3516 16.4265C16.3516 17.0722 16.8729 17.5937 17.5188 17.5937C18.1618 17.5937 18.686 17.0724 18.686 16.4265C18.6862 15.7832 18.162 15.2593 17.5188 15.2593Z" fill="#808E2C"/>
</svg>
