<svg width="26" height="26" viewBox="0 0 26 26" fill="none" xmlns="http://www.w3.org/2000/svg">
<path d="M7.26749 21.1327L7.26746 21.1326L7.26502 21.1344C6.99134 21.3341 6.81282 21.6389 6.81282 21.9537L6.81304 24.0769C6.81304 24.4202 6.98941 24.7251 7.26402 24.926C7.44745 25.068 7.6631 25.1 7.86171 25.1C7.97257 25.1 8.11123 25.0653 8.209 25.0335L8.20901 25.0335L8.21104 25.0328L13.017 23.3515L17.823 24.9103L17.8231 24.9104L17.8274 24.9118C17.9212 24.9421 18.0284 24.9768 18.1702 24.9768C18.3826 24.9768 18.5909 24.9076 18.7936 24.7761L18.7937 24.7763L18.7982 24.773C19.0779 24.5689 19.2186 24.2615 19.2186 23.9537V21.9845C19.2186 21.6429 19.0434 21.3343 18.7618 21.162L15.9299 19.224L15.9301 14.9833L23.7362 17.4951L23.7364 17.4951L23.7443 17.4977C23.8341 17.5268 23.9414 17.5615 24.0515 17.5615C24.264 17.5615 24.4723 17.4923 24.675 17.3609L24.6751 17.361L24.6796 17.3577C24.9593 17.1536 25.1 16.8462 25.1 16.5384V14.5692C25.1 14.2254 24.9231 13.92 24.6478 13.7192L24.6479 13.719L24.6431 13.716L15.9304 8.08396V3.73848C15.9304 2.17294 14.6183 0.9 13.0161 0.9C11.4139 0.9 10.1018 2.17288 10.1018 3.73848V8.08385L1.35806 13.7152C1.07412 13.8884 0.9 14.1984 0.9 14.5692L0.900028 16.5382C0.900028 16.8785 1.07382 17.185 1.32011 17.3573C1.49721 17.4943 1.70838 17.5614 1.94848 17.5614L1.95491 17.5614C2.04386 17.5614 2.15961 17.5615 2.27548 17.4912L10.1015 14.9831V19.1932L7.26749 21.1327ZM14.8252 19.8208L18.0701 22.0371V23.8155L13.0472 22.1664L13.0149 22.1558L12.9828 22.1671L7.96175 23.9357V22.0376L11.2066 19.8212L11.2502 19.7914V19.7386V13.5848V13.4476L11.1197 13.4896L2.04851 16.4012L2.04871 14.6236L11.2045 8.74543L11.2505 8.71592V8.66128V3.73829C11.2505 2.78177 12.0558 2.02295 13.0161 2.02295C13.9754 2.02295 14.7816 2.81156 14.7816 3.73829V8.63057V8.68505L14.8274 8.71459L23.9834 14.6235V16.4012L14.9122 13.4891L14.7816 13.4472V13.5843V19.7382V19.791L14.8252 19.8208Z" fill="#808E2C" stroke="#808E2C" stroke-width="0.2"/>
</svg>
