<svg width="25" height="26" viewBox="0 0 25 26" fill="none" xmlns="http://www.w3.org/2000/svg">
<path d="M7.03156 14.1284C10.6718 14.1284 13.6332 11.1668 13.6332 7.52612C13.6332 3.88592 10.6719 0.925 7.03156 0.925C3.39126 0.925 0.429883 3.88637 0.429883 7.52612C0.429883 11.1665 3.39147 14.1284 7.03156 14.1284ZM7.03156 2.00738C10.0747 2.00738 12.5509 4.4832 12.5509 7.52612C12.5509 10.5697 10.0748 13.0454 7.03156 13.0454C3.98846 13.0454 1.51227 10.5694 1.51227 7.52612C1.51227 4.48303 3.98829 2.00738 7.03156 2.00738Z" fill="#808E2C" stroke="#808E2C" stroke-width="0.15"/>
<path d="M17.3319 10.927C13.6914 10.927 10.7302 13.8883 10.7302 17.5286C10.7302 21.1684 13.6911 24.1303 17.3319 24.1303C20.9726 24.1303 23.9335 21.1685 23.9335 17.5286C23.9335 13.8884 20.9722 10.927 17.3319 10.927ZM17.3319 23.0485C14.2883 23.0485 11.8126 20.572 11.8126 17.5292C11.8126 14.4856 14.2884 12.0099 17.3319 12.0099C20.3753 12.0099 22.8512 14.4859 22.8512 17.5292C22.8512 20.5721 20.3753 23.0485 17.3319 23.0485Z" fill="#808E2C" stroke="#808E2C" stroke-width="0.15"/>
<path d="M18.2643 20.2274C17.1419 20.2274 16.1778 19.5377 15.7718 18.5607H18.3753V17.6282H15.5711C15.5706 17.6155 15.5697 17.6027 15.5688 17.5899C15.5675 17.5699 15.5661 17.5497 15.5661 17.5294C15.5661 17.4625 15.571 17.3966 15.5759 17.3311C15.5762 17.3265 15.5766 17.3219 15.5769 17.3174H18.3753V16.3849H15.8245C16.2561 15.4683 17.1862 14.8309 18.2643 14.8309C18.6491 14.8309 19.0214 14.9112 19.3717 15.0683L19.7545 14.2187C19.2834 14.006 18.782 13.8989 18.2643 13.8989C16.6624 13.8989 15.302 14.9428 14.8214 16.3853H13.7138V17.3178H14.6445C14.6434 17.3354 14.6422 17.353 14.641 17.3705C14.6373 17.4233 14.6337 17.476 14.6337 17.5298C14.6337 17.5477 14.6349 17.5653 14.6362 17.583C14.6373 17.5981 14.6384 17.6133 14.6387 17.6287H13.7134V18.5611H14.7852C15.2309 20.0615 16.6207 21.1602 18.2638 21.1602C19.056 21.1602 19.8389 20.8949 20.4687 20.4136L19.9024 19.673C19.435 20.0301 18.8529 20.2274 18.2643 20.2274Z" fill="#808E2C"/>
<path d="M18.2643 20.2274C17.1419 20.2274 16.1778 19.5377 15.7718 18.5607H18.3753V17.6282H15.5711C15.5706 17.6155 15.5697 17.6027 15.5688 17.5899C15.5675 17.5699 15.5661 17.5497 15.5661 17.5294C15.5661 17.4625 15.571 17.3966 15.5759 17.3311C15.5762 17.3265 15.5766 17.3219 15.5769 17.3174H18.3753V16.3849H15.8245C16.2561 15.4683 17.1862 14.8309 18.2643 14.8309C18.6491 14.8309 19.0214 14.9112 19.3717 15.0683L19.7545 14.2187C19.2834 14.006 18.782 13.8989 18.2643 13.8989C16.6624 13.8989 15.302 14.9428 14.8214 16.3853H13.7138V17.3178H14.6445C14.6434 17.3354 14.6422 17.353 14.641 17.3705C14.6373 17.4233 14.6337 17.476 14.6337 17.5298C14.6337 17.5477 14.6349 17.5653 14.6362 17.583C14.6373 17.5981 14.6384 17.6133 14.6387 17.6287H13.7134V18.5611H14.7852C15.2309 20.0615 16.6207 21.1602 18.2638 21.1602C19.056 21.1602 19.8389 20.8949 20.4687 20.4136L19.9024 19.673C19.435 20.0301 18.8529 20.2274 18.2643 20.2274Z" stroke="#808E2C"/>
<path d="M6.32734 7.69471H6.56516V10.1811H5.04133V11.1136H6.56516V11.7229H7.4976V11.1136H7.73564C8.80422 11.1136 9.67311 10.2442 9.67311 9.17587V8.68852C9.67311 7.61994 8.80378 6.75083 7.73564 6.75083H7.4976V4.26442H9.02166V3.33198H7.4976V2.71045H6.56516V3.33198H6.32734C5.25876 3.33198 4.38965 4.20132 4.38965 5.26967V5.75702C4.38943 6.8256 5.25876 7.69471 6.32734 7.69471ZM8.74065 8.68803V9.17538C8.74065 9.72994 8.28973 10.1809 7.73563 10.1809H7.49758V7.69445H7.80847V7.68946C8.3279 7.72805 8.74065 8.15842 8.74065 8.68803ZM5.32181 5.26941C5.32181 4.71485 5.77274 4.26393 6.32728 4.26393H6.56511V6.7625H6.32728C5.77273 6.7625 5.32181 6.31157 5.32181 5.75702V5.26941Z" fill="#808E2C"/>
<path d="M6.32734 7.69471H6.56516V10.1811H5.04133V11.1136H6.56516V11.7229H7.4976V11.1136H7.73564C8.80422 11.1136 9.67311 10.2442 9.67311 9.17587V8.68852C9.67311 7.61994 8.80378 6.75083 7.73564 6.75083H7.4976V4.26442H9.02166V3.33198H7.4976V2.71045H6.56516V3.33198H6.32734C5.25876 3.33198 4.38965 4.20132 4.38965 5.26967V5.75702C4.38943 6.8256 5.25876 7.69471 6.32734 7.69471ZM8.74065 8.68803V9.17538C8.74065 9.72994 8.28973 10.1809 7.73563 10.1809H7.49758V7.69445H7.80847V7.68946C8.3279 7.72805 8.74065 8.15842 8.74065 8.68803ZM5.32181 5.26941C5.32181 4.71485 5.77274 4.26393 6.32728 4.26393H6.56511V6.7625H6.32728C5.77273 6.7625 5.32181 6.31157 5.32181 5.75702V5.26941Z" stroke="#808E2C"/>
<path d="M8.68218 21.5257L8.63507 21.584L8.69335 21.6311L9.77572 22.5067C5.81449 22.248 2.70649 19.0578 2.60294 15.0274L2.60101 14.9524L2.52606 14.9543L1.59429 14.978L1.5193 14.9799L1.52122 15.0548C1.63742 19.5925 5.09472 23.1977 9.52997 23.5724L8.45945 24.441L8.4012 24.4883L8.44847 24.5465L9.0362 25.2706L9.08346 25.3288L9.14169 25.2816L11.9585 22.9959L12.0304 22.9376L11.9584 22.8794L9.37426 20.7886L9.31592 20.7414L9.26875 20.7998L8.68218 21.5257Z" fill="#808E2C" stroke="#808E2C" stroke-width="0.15"/>
<path d="M17.4084 5.286L17.4555 5.22769L17.3972 5.18052L16.3148 4.30493C20.2759 4.56299 23.3841 7.75396 23.4882 11.7837L23.4901 11.8586L23.5651 11.8567L24.4968 11.8331L24.5718 11.8312L24.5699 11.7562C24.4535 7.21874 20.996 3.61338 16.5611 3.23815L17.6315 2.36974L17.6897 2.32247L17.6424 2.26423L17.0547 1.54014L17.0075 1.48191L16.9492 1.52916L14.1324 3.81483L14.0606 3.87316L14.1325 3.93138L16.7165 6.02213L16.7748 6.06932L16.822 6.01099L17.4084 5.286Z" fill="#808E2C" stroke="#808E2C" stroke-width="0.15"/>
</svg>
